<svg width="583" height="1676" viewBox="0 0 583 1676" fill="none" xmlns="http://www.w3.org/2000/svg">
<path d="M291 1418L439.956 1676H142.044L291 1418Z" fill="#D9D9D9"/>
<path d="M0 1538L145 1409V1177L0 1380V1538Z" fill="#D9D9D9"/>
<path d="M583 1538L438 1409V1177L583 1380V1538Z" fill="#D9D9D9"/>
<path d="M436.785 830.198H146.008V1539.08H436.785V830.198Z" fill="#262626"/>
<path d="M436.776 742.589H146V830.208H436.776V742.589Z" fill="#8F8F8F"/>
<path d="M436.79 417.485H146.012V742.589H436.79V417.485Z" fill="#1D1D1D"/>
<path fill-rule="evenodd" clip-rule="evenodd" d="M146.013 417.478L436.8 417.423C436.8 417.423 430.959 299.596 393.601 192.751C358.945 93.6736 313.923 -0.00439437 290.819 1.54607e-07C267.375 0.00439468 215.995 93.845 183.798 193.658C147.078 307.459 146.013 417.478 146.013 417.478Z" fill="#262626"/>
</svg>
