<svg width="437" height="4500" viewBox="0 0 437 4500" fill="none" xmlns="http://www.w3.org/2000/svg">
<g clip-path="url(#clip0_17_6)">
<path fill-rule="evenodd" clip-rule="evenodd" d="M74 4644L168.122 4369L284.644 4369.98L381 4643.62L74 4644Z" fill="#A6A6A6" stroke="black" stroke-width="0.995167" stroke-miterlimit="1.5" stroke-linecap="round" stroke-linejoin="round"/>
<path d="M373.271 1599.52H82.4932V1682.85H373.271V1599.52Z" fill="#8F8F8F"/>
<path d="M373.264 890.63H82.4863V1599.51H373.264V890.63Z" fill="#262626"/>
<path d="M373.255 803.021H82.4785V890.641H373.255V803.021Z" fill="#8F8F8F"/>
<path d="M373.269 477.917H82.4907V803.021H373.269V477.917Z" fill="#1D1D1D"/>
<path fill-rule="evenodd" clip-rule="evenodd" d="M82.4912 477.911L373.279 477.856C373.279 477.856 367.437 360.029 330.08 253.184C295.424 154.106 250.402 60.4282 227.298 60.4326C203.853 60.437 152.473 154.278 120.277 254.09C83.5563 367.892 82.4912 477.911 82.4912 477.911Z" fill="#262626"/>
<path d="M373.264 3795.57H82.4873V3881.09H373.264V3795.57Z" fill="#8F8F8F"/>
<path d="M373.267 3881.09H82.4888V4369.28H373.267V3881.09Z" fill="#262626"/>
<path d="M373.271 1682.85H82.4927V3795.56H373.271V1682.85Z" fill="#262626"/>
<path fill-rule="evenodd" clip-rule="evenodd" d="M254.645 828.013C254.645 824.708 251.958 822.021 248.646 822.021H202.971C199.671 822.021 196.984 824.708 196.984 828.013V865.258C196.984 868.563 199.671 871.237 202.971 871.237H248.646C251.958 871.237 254.645 868.563 254.645 865.258V828.013Z" fill="#8F8F8F" stroke="#262626" stroke-width="0.622586" stroke-miterlimit="1.5" stroke-linecap="round" stroke-linejoin="round"/>
<path fill-rule="evenodd" clip-rule="evenodd" d="M121.86 830.514C121.86 826.471 118.584 823.194 114.54 823.194H99.9128C95.8695 823.194 92.5928 826.471 92.5928 830.514V864.666C92.5928 868.709 95.8695 871.986 99.9128 871.986H114.54C118.584 871.986 121.86 868.709 121.86 864.666V830.514Z" fill="#8F8F8F" stroke="#262626" stroke-width="0.630605" stroke-miterlimit="1.5" stroke-linecap="round" stroke-linejoin="round"/>
<path fill-rule="evenodd" clip-rule="evenodd" d="M368.01 830.514C368.01 826.471 364.733 823.194 360.69 823.194H346.063C342.019 823.194 338.743 826.471 338.743 830.514V864.666C338.743 868.709 342.019 871.986 346.063 871.986H360.69C364.733 871.986 368.01 868.709 368.01 864.666V830.514Z" fill="#8F8F8F" stroke="#262626" stroke-width="0.630605" stroke-miterlimit="1.5" stroke-linecap="round" stroke-linejoin="round"/>
<path d="M375.33 1252.74H82.3735V1254.82H375.33V1252.74Z" fill="#4D4D4D" stroke="#262626" stroke-width="0.630605" stroke-miterlimit="1.5" stroke-linecap="round" stroke-linejoin="round"/>
<path d="M375.33 1593.22H82.3735V1595.3H375.33V1593.22Z" fill="#4D4D4D" stroke="#262626" stroke-width="0.630605" stroke-miterlimit="1.5" stroke-linecap="round" stroke-linejoin="round"/>
</g>
<defs>
<clipPath id="clip0_17_6">
<rect width="437" height="4500" fill="white"/>
</clipPath>
</defs>
</svg>
