<svg width="922" height="838" viewBox="0 0 922 838" fill="none" xmlns="http://www.w3.org/2000/svg">
<g clip-path="url(#clip0_44_2)">
<path d="M785.5 852.5C785.5 1036.17 606.904 1185.5 386 1185.5C165.096 1185.5 -13.5 1036.17 -13.5 852.5C-13.5 668.832 165.096 519.5 386 519.5C606.904 519.5 785.5 668.832 785.5 852.5Z" stroke="white" stroke-width="3"/>
<path fill-rule="evenodd" clip-rule="evenodd" d="M433.623 625.006C421.663 603.652 395.588 593.635 371.963 602.489C371.642 602.61 371.322 602.734 371.004 602.86L371.355 603.797C371.673 603.67 371.992 603.546 372.314 603.426C395.516 594.73 421.129 604.604 432.821 625.62L433.623 625.006Z" fill="white"/>
<path d="M433.623 625.006L433.927 625.404L434.272 625.14L434.06 624.762L433.623 625.006ZM371.963 602.489L371.788 602.021L371.963 602.489ZM371.004 602.86L370.819 602.396L370.363 602.577L370.535 603.036L371.004 602.86ZM371.355 603.797L370.886 603.972L371.066 604.45L371.54 604.261L371.355 603.797ZM372.314 603.426L372.139 602.958L372.139 602.958L372.314 603.426ZM432.821 625.62L432.384 625.863L432.665 626.369L433.124 626.017L432.821 625.62ZM434.06 624.762C421.981 603.196 395.648 593.079 371.788 602.021L372.139 602.958C395.529 594.192 421.346 604.109 433.187 625.251L434.06 624.762ZM371.788 602.021C371.463 602.143 371.14 602.268 370.819 602.396L371.188 603.325C371.503 603.199 371.82 603.077 372.139 602.958L371.788 602.021ZM370.535 603.036L370.886 603.972L371.823 603.621L371.472 602.685L370.535 603.036ZM371.54 604.261C371.854 604.136 372.171 604.013 372.49 603.894L372.139 602.958C371.814 603.079 371.491 603.204 371.17 603.332L371.54 604.261ZM372.49 603.894C395.457 595.287 420.811 605.061 432.384 625.863L433.258 625.377C421.448 604.148 395.576 594.174 372.139 602.958L372.49 603.894ZM433.32 624.609L432.517 625.223L433.124 626.017L433.927 625.404L433.32 624.609Z" fill="white"/>
<path d="M428.674 669.726C427.607 669.726 426.975 669.706 426.778 669.667C426.58 669.627 426.482 669.41 426.482 669.015C426.482 667.948 426.699 667.296 427.133 667.059C427.212 667.02 430.649 667 437.445 667C444.24 667.04 447.914 667.099 448.467 667.178C450.679 667.494 452.536 668.047 454.037 668.837C455.539 669.627 456.605 670.536 457.237 671.563C457.869 672.59 458.284 673.44 458.482 674.111C458.679 674.783 458.798 675.454 458.837 676.126C458.837 677.904 458.265 679.563 457.119 681.104C455.973 682.645 454.65 683.83 453.148 684.659C451.647 685.489 450.324 686.161 449.178 686.674C448.032 687.188 447.282 687.445 446.926 687.445L447.341 687.741C449.988 689.242 451.311 691.415 451.311 694.26C451.311 694.694 451.213 695.899 451.015 697.874C450.818 699.85 450.719 701.469 450.719 702.734V703.267C450.719 703.978 450.739 704.531 450.778 704.926C450.818 705.321 451.035 705.677 451.43 705.993C451.825 706.309 452.339 706.487 452.971 706.526C454.077 706.526 454.985 706.092 455.697 705.223C456.408 704.353 456.921 703.425 457.237 702.437C457.435 701.884 457.593 701.548 457.711 701.43C457.83 701.311 458.126 701.252 458.6 701.252C459.39 701.252 459.786 701.489 459.786 701.963C459.786 702.674 459.311 703.8 458.363 705.341C456.862 707.593 455.084 708.719 453.03 708.719H452.497C450.087 708.719 448.092 708.225 446.511 707.237C444.931 706.25 444.062 704.709 443.904 702.615C443.904 701.548 444.2 699.889 444.793 697.637C445.385 695.385 445.682 693.943 445.682 693.311C445.682 691.297 444.832 689.835 443.134 688.926C442.541 688.65 442.047 688.492 441.652 688.452C441.257 688.413 439.854 688.373 437.445 688.334H433.356L431.459 696.037C430.156 701.252 429.504 703.899 429.504 703.978C429.504 704.136 429.524 704.235 429.563 704.274C429.603 704.314 429.741 704.393 429.978 704.511C430.215 704.63 430.551 704.669 430.985 704.63C431.42 704.59 432.072 704.63 432.941 704.748H434.778C435.015 705.065 435.133 705.242 435.133 705.282C435.133 705.321 435.074 705.677 434.956 706.348C434.798 706.862 434.6 707.237 434.363 707.474H433.474C432.052 707.395 429.464 707.356 425.711 707.356C424.368 707.356 423.124 707.356 421.978 707.356C420.832 707.356 419.923 707.356 419.252 707.356C418.58 707.356 418.165 707.376 418.007 707.415C417.336 707.415 417 707.237 417 706.882C417 706.803 417.059 706.526 417.178 706.052C417.375 705.302 417.573 704.887 417.77 704.808C417.928 704.768 418.225 704.748 418.659 704.748H419.015C420.082 704.748 421.267 704.689 422.57 704.571C423.124 704.452 423.499 704.215 423.696 703.86C423.815 703.702 425.237 698.21 427.963 687.385C430.689 676.561 432.052 670.852 432.052 670.259C432.052 669.983 430.926 669.805 428.674 669.726ZM452.378 674.645C452.378 673.38 451.963 672.314 451.134 671.445C450.304 670.575 448.605 670.022 446.037 669.785C445.958 669.785 445.504 669.785 444.674 669.785C443.845 669.785 443.094 669.765 442.422 669.726H441.119C439.262 669.726 438.195 669.924 437.919 670.319C437.879 670.437 437.208 673.064 435.904 678.2C434.6 683.336 433.948 685.963 433.948 686.082C433.948 686.121 435.311 686.141 438.037 686.141C441.119 686.101 443.173 685.963 444.2 685.726C446.729 685.331 448.704 684.166 450.126 682.23C450.758 681.321 451.292 680.136 451.726 678.674C452.161 677.212 452.378 675.869 452.378 674.645Z" fill="white"/>
<path d="M461.656 709.325C461.656 707.733 461.922 706.28 462.453 704.967C462.983 703.655 463.668 702.565 464.505 701.7C465.343 700.834 466.279 700.107 467.313 699.521C468.346 698.934 469.324 698.501 470.245 698.222C471.167 697.943 472.047 697.817 472.885 697.845H473.01C474.267 697.845 475.357 698.152 476.278 698.767C477.2 699.381 477.661 700.289 477.661 701.49C477.661 704.004 476.111 705.652 473.01 706.434C471.642 706.797 469.77 706.992 467.396 707.02C466.363 707.02 465.832 707.048 465.804 707.104C465.804 707.16 465.72 707.649 465.553 708.571C465.385 709.492 465.288 710.302 465.26 711.001C465.26 712.313 465.553 713.347 466.139 714.101C466.726 714.855 467.606 715.246 468.779 715.274C469.952 715.302 471.251 715.037 472.675 714.478C474.1 713.919 475.385 712.998 476.53 711.713C476.781 711.434 476.949 711.294 477.033 711.294C477.144 711.294 477.326 711.42 477.577 711.671C477.829 711.922 477.968 712.118 477.996 712.257C478.024 712.397 477.898 712.621 477.619 712.928C477.34 713.235 476.921 713.612 476.362 714.059C475.804 714.506 475.161 714.939 474.435 715.358C473.709 715.777 472.829 716.126 471.795 716.405C470.762 716.685 469.701 716.824 468.611 716.824C466.405 716.824 464.701 716.084 463.5 714.604C462.299 713.123 461.684 711.364 461.656 709.325ZM475.65 701.574C475.482 700.121 474.533 699.395 472.801 699.395C471.879 699.395 471.027 699.591 470.245 699.982C469.463 700.373 468.835 700.848 468.36 701.406C467.885 701.965 467.48 702.537 467.145 703.124C466.81 703.711 466.586 704.213 466.475 704.632C466.363 705.051 466.293 705.317 466.265 705.428C466.265 705.456 466.544 705.47 467.103 705.47C470.259 705.47 472.466 705.135 473.723 704.465C474.98 703.794 475.622 702.831 475.65 701.574Z" fill="white"/>
</g>
<line x1="371" y1="741" x2="371" y2="110" stroke="white" stroke-width="2"/>
<line x1="371.118" y1="740.99" x2="767.118" y2="0.528362" stroke="white" stroke-width="2"/>
<path d="M629 320L638.672 313.692L628.373 308.47L629 320ZM664.108 248.548L632.178 311.521L633.962 312.425L665.892 249.452L664.108 248.548Z" fill="white"/>
<path fill-rule="evenodd" clip-rule="evenodd" d="M439 245.276C434.119 213.408 406.588 189 373.355 189C372.903 189 372.451 189.005 372 189.014V190.014C372.451 190.005 372.902 190 373.355 190C406.136 190 433.285 214.113 438.033 245.569L439 245.276Z" fill="white"/>
<path d="M439 245.276L439.145 245.754L439.56 245.629L439.494 245.2L439 245.276ZM372 189.014L371.99 188.514L371.5 188.523V189.014H372ZM372 190.014H371.5V190.524L372.01 190.514L372 190.014ZM438.033 245.569L437.539 245.643L437.625 246.215L438.178 246.047L438.033 245.569ZM439.494 245.2C434.577 213.092 406.838 188.5 373.355 188.5V189.5C406.337 189.5 433.662 213.725 438.506 245.352L439.494 245.2ZM373.355 188.5C372.899 188.5 372.444 188.505 371.99 188.514L372.01 189.513C372.457 189.504 372.906 189.5 373.355 189.5V188.5ZM371.5 189.014V190.014H372.5V189.014H371.5ZM372.01 190.514C372.457 190.505 372.906 190.5 373.355 190.5V189.5C372.899 189.5 372.444 189.505 371.99 189.514L372.01 190.514ZM373.355 190.5C405.885 190.5 432.827 214.428 437.539 245.643L438.527 245.494C433.743 213.797 406.387 189.5 373.355 189.5V190.5ZM438.855 244.797L437.888 245.09L438.178 246.047L439.145 245.754L438.855 244.797Z" fill="white"/>
<path d="M426.7 148.274C426.821 148.091 427.004 148 427.247 148H427.612H428.205C428.387 148.182 428.478 148.304 428.478 148.365C428.478 148.578 428.022 150.448 427.11 153.974C426.897 154.826 426.685 155.723 426.472 156.665C426.259 157.608 426.077 158.307 425.924 158.763L425.742 159.493C425.742 159.523 425.879 159.538 426.153 159.538C426.426 159.538 426.913 159.63 427.612 159.812C428.311 159.994 429.041 160.253 429.801 160.587C431.139 161.226 432.249 162.153 433.13 163.369C434.012 164.585 434.453 166.06 434.453 167.793C434.453 169.526 433.982 171.183 433.039 172.764C432.097 174.345 430.926 175.653 429.527 176.686C428.129 177.72 426.654 178.541 425.104 179.149C423.553 179.757 422.109 180.076 420.771 180.107H420.589L419.494 184.439C419.312 185.139 419.114 185.975 418.901 186.948C418.658 187.921 418.491 188.498 418.399 188.681C418.308 188.863 418.126 188.97 417.852 189H417.579C416.97 189 416.666 188.894 416.666 188.681C416.666 188.529 417.001 187.085 417.67 184.348L418.719 180.152C418.719 180.122 418.597 180.107 418.354 180.107C418.202 180.107 417.898 180.076 417.442 180.016C416.986 179.955 416.302 179.742 415.389 179.377C414.477 179.012 413.656 178.556 412.927 178.009C412.197 177.462 411.513 176.656 410.874 175.592C410.236 174.528 409.947 173.281 410.008 171.852C410.008 170.028 410.51 168.31 411.513 166.699C412.516 165.087 413.748 163.78 415.207 162.776C416.666 161.773 418.141 160.983 419.631 160.405C421.121 159.827 422.458 159.538 423.644 159.538C423.796 159.538 423.887 159.478 423.918 159.356L425.286 153.792C426.229 150.174 426.7 148.334 426.7 148.274ZM413.611 172.81C413.611 173.844 413.793 174.74 414.158 175.501C414.523 176.261 415.025 176.838 415.663 177.234C416.302 177.629 416.849 177.902 417.305 178.054C417.761 178.207 418.278 178.328 418.856 178.419H419.175L423.416 161.226C423.295 161.226 423.127 161.241 422.914 161.271C422.702 161.302 422.261 161.423 421.592 161.636C420.923 161.849 420.285 162.092 419.676 162.366C419.068 162.64 418.399 163.08 417.67 163.689C416.94 164.297 416.317 164.996 415.8 165.786C415.253 166.638 414.751 167.656 414.295 168.842C413.839 170.241 413.611 171.563 413.611 172.81ZM430.85 166.79C430.85 165.634 430.607 164.646 430.12 163.825C429.634 163.004 429.026 162.427 428.296 162.092C427.566 161.758 426.973 161.53 426.517 161.408C426.061 161.287 425.696 161.226 425.423 161.226H425.286L423.188 169.754L420.999 178.328C420.999 178.389 421.014 178.419 421.045 178.419C421.288 178.419 421.774 178.328 422.504 178.146C423.234 177.963 423.842 177.75 424.328 177.507C425.636 176.93 426.761 176.124 427.703 175.09C428.646 174.056 429.315 172.992 429.71 171.898C430.105 170.803 430.394 169.83 430.576 168.979C430.759 168.128 430.85 167.398 430.85 166.79Z" fill="white"/>
<path d="M402 574.646C402 571.327 402.634 567.83 403.903 564.153C405.172 560.477 406.897 557.304 409.077 554.636C411.256 551.968 413.518 550.439 415.86 550.049C415.893 550.049 416.023 550.049 416.251 550.049C416.478 550.049 416.674 550.033 416.836 550C418.593 550.13 419.96 550.927 420.936 552.391C422.205 554.344 422.839 556.963 422.839 560.249C422.839 563.99 422.107 567.797 420.643 571.669C419.179 575.541 417.308 578.713 415.031 581.186C412.753 583.658 410.573 584.895 408.491 584.895H408.149C406.978 584.895 405.969 584.569 405.123 583.919C404.278 583.268 403.643 582.406 403.22 581.332C402.797 580.258 402.488 579.168 402.293 578.062C402.098 576.956 402 575.817 402 574.646ZM418.984 556.784C418.984 553.465 418.121 551.806 416.397 551.806C415.226 551.806 414.087 552.538 412.981 554.002C411.875 555.466 410.964 557.125 410.248 558.98C409.532 560.834 408.979 562.461 408.589 563.86C408.198 565.259 407.987 566.073 407.954 566.3C409.548 566.333 411.126 566.349 412.688 566.349L417.422 566.3C417.455 566.268 417.585 565.731 417.812 564.69C418.04 563.649 418.3 562.347 418.593 560.786C418.886 559.224 419.016 557.89 418.984 556.784ZM405.807 577.965C405.807 581.413 406.669 583.138 408.393 583.138C408.881 583.138 409.402 582.975 409.955 582.65C410.508 582.324 411.175 581.706 411.956 580.795C412.737 579.884 413.518 578.469 414.299 576.549C415.079 574.63 415.86 572.254 416.641 569.424L416.885 568.594H407.368C407.368 568.692 407.222 569.31 406.929 570.449C406.636 571.588 406.376 572.856 406.148 574.255C405.921 575.654 405.807 576.891 405.807 577.965Z" fill="white"/>
<line x1="800.217" y1="164.976" x2="372.217" y2="259.976" stroke="white" stroke-width="2" stroke-dasharray="8 8"/>
<path fill-rule="evenodd" clip-rule="evenodd" d="M838 155.505C830.205 104.612 786.237 65.6315 733.164 65.6315C732.441 65.6315 731.72 65.6388 731 65.6532V66.6534C731.72 66.6388 732.441 66.6315 733.164 66.6315C785.785 66.6315 829.371 105.316 837.033 155.798L838 155.505Z" fill="white"/>
<path d="M838 155.505L838.145 155.983L838.56 155.858L838.494 155.429L838 155.505ZM731 65.6532L730.99 65.1533L730.5 65.1631V65.6532H731ZM731 66.6534H730.5V67.1636L731.01 67.1533L731 66.6534ZM837.033 155.798L836.539 155.873L836.625 156.444L837.178 156.276L837.033 155.798ZM838.494 155.429C830.662 104.296 786.488 65.1315 733.164 65.1315V66.1315C785.986 66.1315 829.748 104.928 837.506 155.58L838.494 155.429ZM733.164 65.1315C732.438 65.1315 731.713 65.1388 730.99 65.1533L731.01 66.1531C731.726 66.1387 732.445 66.1315 733.164 66.1315V65.1315ZM730.5 65.6532V66.6534H731.5V65.6532H730.5ZM731.01 67.1533C731.726 67.1388 732.445 67.1315 733.164 67.1315V66.1315C732.438 66.1315 731.713 66.1389 730.99 66.1535L731.01 67.1533ZM733.164 67.1315C785.534 67.1315 828.913 105.632 836.539 155.873L837.527 155.723C829.829 105.001 786.036 66.1315 733.164 66.1315V67.1315ZM837.855 155.026L836.888 155.319L837.178 156.276L838.145 155.983L837.855 155.026Z" fill="white"/>
<path d="M887 147L876.078 143.251L878.293 154.584L887 147ZM800.192 164.981L878.359 149.707L877.975 147.745L799.808 163.019L800.192 164.981Z" fill="white"/>
<path d="M825.975 248.754L828.564 237.502L817.524 240.885L825.975 248.754ZM799.044 164.293L822.381 240.443L824.294 239.856L800.956 163.707L799.044 164.293Z" fill="white"/>
<mask id="path-18-inside-1_44_2" fill="white">
<path d="M542.264 193.125C540.255 184.52 545.602 175.916 554.208 173.907L749.331 128.36L769.401 214.34L574.278 259.887C565.673 261.896 557.068 256.548 555.06 247.943L542.264 193.125Z"/>
</mask>
<path d="M542.264 193.125C540.255 184.52 545.602 175.916 554.208 173.907L749.331 128.36L769.401 214.34L574.278 259.887C565.673 261.896 557.068 256.548 555.06 247.943L542.264 193.125Z" fill="#F1F1F1"/>
<path d="M540.316 193.58C538.056 183.899 544.072 174.219 553.753 171.959L748.876 126.412L749.785 130.307L554.662 175.855C547.133 177.612 542.454 185.141 544.211 192.671L540.316 193.58ZM769.856 216.288L574.732 261.835C565.052 264.095 555.372 258.079 553.112 248.398L557.007 247.488C558.765 255.018 566.294 259.697 573.823 257.94L768.946 212.392L769.856 216.288ZM574.732 261.835C565.052 264.095 555.372 258.079 553.112 248.398L540.316 193.58C538.056 183.899 544.072 174.219 553.753 171.959L554.662 175.855C547.133 177.612 542.454 185.141 544.211 192.671L557.007 247.488C558.765 255.018 566.294 259.697 573.823 257.94L574.732 261.835ZM749.331 128.36L769.401 214.34L749.331 128.36Z" fill="white" mask="url(#path-18-inside-1_44_2)"/>
<mask id="path-20-inside-2_44_2" fill="white">
<path d="M749.331 128.36L715.796 179.938L769.525 214.871L803.06 163.293L749.331 128.36Z"/>
</mask>
<path d="M749.331 128.36L715.796 179.938L769.525 214.871L803.06 163.293L749.331 128.36Z" fill="#F1F1F1"/>
<path d="M803.06 163.293L804.15 161.616L805.827 162.706L804.736 164.383L803.06 163.293ZM767.848 213.78L801.383 162.203L804.736 164.383L771.202 215.961L767.848 213.78ZM801.97 164.969L748.241 130.037L750.421 126.683L804.15 161.616L801.97 164.969Z" fill="white" mask="url(#path-20-inside-2_44_2)"/>
<path d="M808.253 52.7618C809.278 52.7618 810.091 53.062 810.692 53.6623C811.292 54.2626 811.592 55.0005 811.592 55.876C811.592 56.3763 811.192 57.702 810.392 59.8532C809.591 62.0044 809.203 63.5677 809.228 64.5432C809.303 65.5938 809.641 66.4193 810.241 67.0196C810.767 67.4698 811.305 67.77 811.855 67.9201C812.305 68.1202 812.693 68.2202 813.018 68.2202H813.055L816.132 55.801C818.233 47.5215 819.296 43.3692 819.321 43.3442C819.396 43.2942 819.597 43.2692 819.922 43.2692C820.422 43.2692 820.672 43.3567 820.672 43.5318C820.672 43.7569 819.659 47.8967 817.633 55.9511C815.582 64.1555 814.556 68.2703 814.556 68.2953C814.556 68.3203 814.631 68.3328 814.781 68.3328C816.933 68.3328 818.971 67.2322 820.897 65.031C822.823 62.8298 823.799 60.7787 823.824 58.8777C823.824 58.2773 823.724 57.7645 823.524 57.3393C823.324 56.9141 823.098 56.6139 822.848 56.4388C822.598 56.2637 822.373 56.0386 822.173 55.7635C821.973 55.4883 821.873 55.2007 821.873 54.9005C821.873 54.3752 822.085 53.8749 822.511 53.3997C822.936 52.9244 823.461 52.6868 824.086 52.6868C824.562 52.6868 824.999 52.9119 825.4 53.3622C825.8 53.8124 826 54.5503 826 55.5759C826 56.3013 825.862 57.2768 825.587 58.5024C825.312 59.7281 825.087 60.5786 824.912 61.0538C824.111 63.4301 822.698 65.4687 820.672 67.1697C818.646 68.8706 816.607 69.721 814.556 69.721H814.181L813.318 73.2104C812.718 75.5617 812.418 76.7499 812.418 76.7749C812.368 76.925 812.117 77 811.667 77H811.179C811.029 76.8499 810.954 76.7499 810.954 76.6998C810.954 76.5748 811.242 75.3866 811.817 73.1354C812.393 70.8842 812.68 69.721 812.68 69.646C812.505 69.621 812.33 69.6085 812.155 69.6085C808.178 69.0582 806.189 67.2197 806.189 64.093C806.189 63.2175 806.602 61.6542 807.427 59.4029C808.253 57.1517 808.678 55.7134 808.703 55.0881C808.703 55.0631 808.703 55.0381 808.703 55.0131C808.703 54.7879 808.703 54.6378 808.703 54.5628C808.703 54.4878 808.653 54.4002 808.553 54.3002C808.453 54.2001 808.315 54.1501 808.14 54.1501H807.99C807.415 54.1501 806.89 54.3877 806.414 54.863C805.939 55.3382 805.564 55.851 805.289 56.4013C805.014 56.9516 804.801 57.4769 804.651 57.9772C804.501 58.4774 804.401 58.7526 804.351 58.8026C804.301 58.8526 804.101 58.8777 803.75 58.8777H803.225C803.075 58.7276 803 58.615 803 58.54C803 58.2398 803.163 57.6645 803.488 56.814C803.813 55.9636 804.413 55.0756 805.289 54.1501C806.164 53.2246 807.152 52.7618 808.253 52.7618Z" fill="white"/>
<path d="M895.326 137.581C895.109 137.364 895 137.209 895 137.116C895 136.992 895.047 136.744 895.14 136.372C895.233 136 895.31 135.783 895.372 135.721C895.434 135.566 895.574 135.488 895.791 135.488C896.008 135.488 896.798 135.473 898.163 135.442H900.628L901.512 131.721C901.605 131.38 901.713 130.93 901.837 130.372C901.961 129.814 902.07 129.411 902.163 129.163C902.256 128.915 902.349 128.605 902.442 128.233C902.535 127.86 902.659 127.597 902.814 127.442C902.969 127.287 903.124 127.101 903.279 126.884C903.434 126.667 903.651 126.527 903.93 126.465C904.209 126.403 904.488 126.372 904.767 126.372C905.326 126.403 905.713 126.574 905.93 126.884C906.147 127.194 906.256 127.488 906.256 127.767C906.256 127.984 906.116 128.713 905.837 129.953C905.558 131.194 905.248 132.419 904.907 133.628L904.442 135.349C904.442 135.411 905.217 135.442 906.767 135.442H909.14C909.357 135.659 909.465 135.829 909.465 135.953C909.465 136.636 909.264 137.178 908.86 137.581H903.884L902.209 144.326C901 149.287 900.395 151.953 900.395 152.326C900.395 153.628 900.814 154.279 901.651 154.279C902.736 154.279 903.791 153.752 904.814 152.698C905.837 151.643 906.659 150.341 907.279 148.791C907.341 148.605 907.419 148.496 907.512 148.465C907.605 148.434 907.837 148.403 908.209 148.372H908.395C908.86 148.372 909.093 148.496 909.093 148.744C909.093 148.837 909.047 149.023 908.953 149.302C908.798 149.798 908.519 150.388 908.116 151.07C907.713 151.752 907.186 152.481 906.535 153.256C905.884 154.031 905.093 154.682 904.163 155.209C903.233 155.736 902.287 156 901.326 156C900.395 156 899.512 155.767 898.674 155.302C897.837 154.837 897.233 154.031 896.86 152.884C896.798 152.636 896.767 152.217 896.767 151.628V150.791L898.395 144.279C899.481 139.907 900.039 137.705 900.07 137.674C900.07 137.612 899.279 137.581 897.698 137.581H895.326Z" fill="white"/>
<path d="M899.967 122.233L906.339 116L906.711 116.372C910.742 120.217 912.758 122.171 912.758 122.233L911.549 123.581C911.487 123.55 910.587 122.775 908.851 121.256L906.386 119.116L903.828 121.302C903.425 121.643 903.022 122 902.618 122.372C902.215 122.744 901.89 123.039 901.642 123.256L901.27 123.535C901.208 123.597 900.975 123.38 900.572 122.884L899.967 122.233Z" fill="white"/>
<path d="M818 277.571C818.035 277.364 818.086 277.088 818.155 276.743C818.224 276.397 818.431 275.742 818.777 274.775C819.122 273.809 819.467 272.998 819.812 272.342C820.157 271.686 820.727 271.047 821.521 270.426C822.315 269.805 823.108 269.511 823.902 269.546C825.145 269.546 826.18 269.857 827.009 270.478C827.837 271.099 828.355 271.686 828.562 272.238C828.769 272.79 828.873 273.153 828.873 273.325C828.873 273.394 828.89 273.429 828.925 273.429L829.494 272.859C831.6 270.65 833.999 269.546 836.691 269.546C838.555 269.546 840.056 270.012 841.195 270.944C842.334 271.876 842.921 273.239 842.956 275.034C842.99 276.829 842.334 279.538 840.988 283.163C839.642 286.787 838.986 288.979 839.021 289.738C839.021 290.636 839.314 291.084 839.901 291.084C840.108 291.084 840.263 291.067 840.367 291.033C841.368 290.86 842.265 290.204 843.059 289.065C843.853 287.926 844.457 286.545 844.871 284.923C844.94 284.647 845.286 284.509 845.907 284.509C846.597 284.509 846.942 284.647 846.942 284.923C846.942 284.958 846.873 285.216 846.735 285.7C846.459 286.701 846.079 287.684 845.596 288.651C845.113 289.617 844.319 290.584 843.214 291.55C842.11 292.517 840.919 292.983 839.642 292.948C838.02 292.948 836.846 292.482 836.121 291.55C835.396 290.618 835.034 289.652 835.034 288.651C835.034 287.995 835.655 285.924 836.898 282.438C838.141 278.952 838.779 276.328 838.814 274.568C838.814 272.532 838.054 271.513 836.536 271.513H836.277C833.308 271.513 830.806 273.256 828.769 276.743L828.407 277.364L826.698 284.302C825.559 288.823 824.903 291.257 824.731 291.602C824.282 292.534 823.54 293 822.504 293C822.056 293 821.693 292.896 821.417 292.689C821.141 292.482 820.951 292.275 820.848 292.068C820.744 291.861 820.71 291.688 820.744 291.55C820.744 291.102 821.4 288.288 822.712 283.111C824.023 277.933 824.714 275.12 824.783 274.672C824.817 274.499 824.834 274.102 824.834 273.481C824.834 272.135 824.42 271.462 823.592 271.462C822.28 271.462 821.193 273.187 820.33 276.639C820.123 277.329 820.019 277.692 820.019 277.726C819.95 277.933 819.622 278.037 819.036 278.037H818.311C818.104 277.83 818 277.675 818 277.571Z" fill="white"/>
<path d="M825.3 264.938L832.393 258L832.808 258.414C837.295 262.694 839.538 264.869 839.538 264.938L838.192 266.439C838.123 266.405 837.122 265.542 835.189 263.851L832.445 261.469L829.598 263.902C829.149 264.282 828.7 264.679 828.251 265.093C827.803 265.507 827.44 265.835 827.164 266.077L826.75 266.388C826.681 266.457 826.422 266.215 825.973 265.663L825.3 264.938Z" fill="white"/>
<path d="M608 347.571C608.035 347.467 608.069 347.329 608.104 347.157C608.138 346.984 608.224 346.605 608.362 346.018C608.5 345.431 608.673 344.896 608.88 344.413C609.087 343.929 609.346 343.36 609.657 342.704C609.967 342.048 610.313 341.531 610.692 341.151C611.072 340.771 611.521 340.392 612.038 340.012C612.556 339.632 613.126 339.477 613.747 339.546C614.748 339.546 615.628 339.753 616.388 340.167C617.147 340.581 617.682 340.961 617.993 341.306C618.303 341.651 618.493 341.997 618.562 342.342C618.631 342.549 618.683 342.652 618.717 342.652C618.752 342.652 618.89 342.532 619.132 342.29C620.788 340.495 622.704 339.598 624.879 339.598H625.034C626.691 339.598 627.933 340.305 628.762 341.72C629.038 342.376 629.176 343.015 629.176 343.636C629.176 344.672 628.952 345.5 628.503 346.121C628.054 346.743 627.606 347.14 627.157 347.312C626.708 347.485 626.277 347.554 625.862 347.519C625.172 347.519 624.62 347.329 624.206 346.95C623.791 346.57 623.584 346.07 623.584 345.448C623.584 343.791 624.551 342.687 626.484 342.135C625.724 341.686 625.103 341.462 624.62 341.462C622.687 341.462 620.909 342.739 619.287 345.293C618.942 345.845 618.683 346.415 618.51 347.001C618.338 347.588 617.751 349.884 616.75 353.888C615.576 358.72 614.903 361.291 614.731 361.602C614.282 362.534 613.54 363 612.504 363C612.056 363 611.693 362.896 611.417 362.689C611.141 362.482 610.951 362.275 610.848 362.068C610.744 361.861 610.71 361.688 610.744 361.55C610.744 361.102 611.434 358.133 612.815 352.645C614.196 347.157 614.886 344.102 614.886 343.481C614.886 342.135 614.437 341.462 613.54 341.462C612.815 341.462 612.194 341.945 611.676 342.911C611.158 343.878 610.744 344.93 610.433 346.07C610.123 347.209 609.933 347.83 609.864 347.933C609.795 348.002 609.519 348.037 609.036 348.037H608.311C608.104 347.83 608 347.675 608 347.571Z" fill="white"/>
<path d="M614.322 334.938L621.415 328L621.829 328.414C626.316 332.694 628.56 334.869 628.56 334.938L627.214 336.439C627.145 336.405 626.144 335.542 624.211 333.851L621.467 331.469L618.619 333.902C618.17 334.282 617.722 334.679 617.273 335.093C616.824 335.507 616.462 335.835 616.186 336.077L615.771 336.388C615.702 336.457 615.444 336.215 614.995 335.663L614.322 334.938Z" fill="white"/>
<path d="M552.166 439.515C552.197 439.515 553.321 439.437 555.536 439.281C557.752 439.125 558.891 439.031 558.953 439C559.328 439 559.515 439.14 559.515 439.421C559.515 439.765 558.953 442.121 557.83 446.489C556.644 451.108 556.051 453.464 556.051 453.557C556.051 453.62 556.16 453.542 556.379 453.323C558.282 451.638 560.311 450.796 562.464 450.796C564.149 450.796 565.506 451.217 566.536 452.06C567.566 452.902 568.096 454.135 568.128 455.757C568.128 457.349 567.535 459.814 566.349 463.153C565.163 466.492 564.57 468.489 564.57 469.145C564.601 469.582 564.679 469.878 564.804 470.034C564.929 470.19 565.163 470.268 565.506 470.268C566.38 470.268 567.191 469.8 567.94 468.864C568.689 467.928 569.298 466.648 569.766 465.026C569.86 464.682 569.953 464.479 570.047 464.417C570.14 464.355 570.39 464.323 570.796 464.323C571.42 464.323 571.732 464.448 571.732 464.698C571.732 464.729 571.67 464.963 571.545 465.4C571.045 467.241 570.25 468.755 569.157 469.94C568.096 471.282 566.833 471.953 565.366 471.953H565.132C563.665 471.953 562.604 471.532 561.949 470.689C561.294 469.847 560.966 468.957 560.966 468.021C560.966 467.522 561.528 465.681 562.651 462.498C563.774 459.315 564.352 456.928 564.383 455.336C564.383 453.495 563.696 452.574 562.323 452.574H562.089C559.499 452.574 557.252 454.104 555.349 457.162L555.021 457.77L553.43 464.089C552.431 468.146 551.854 470.362 551.698 470.736C551.292 471.579 550.606 472 549.638 472C549.201 472 548.827 471.86 548.515 471.579C548.203 471.298 548.031 471.017 548 470.736C548 470.299 549.139 465.556 551.417 456.506L554.881 442.651C554.881 442.245 554.772 441.996 554.553 441.902C554.335 441.809 553.726 441.73 552.728 441.668H551.745C551.557 441.481 551.464 441.356 551.464 441.294C551.464 441.231 551.495 440.935 551.557 440.404C551.713 439.811 551.916 439.515 552.166 439.515Z" fill="white"/>
<defs>
<clipPath id="clip0_44_2">
<rect width="787" height="266" fill="white" transform="translate(0 504)"/>
</clipPath>
</defs>
</svg>
